<?xml version="1.0" encoding="utf-8"?>
<!-- Generator: Adobe Illustrator 26.0.1, SVG Export Plug-In . SVG Version: 6.00 Build 0)  -->
<svg version="1.1" id="Layer_1" xmlns="http://www.w3.org/2000/svg" xmlns:xlink="http://www.w3.org/1999/xlink" x="0px" y="0px"
	 viewBox="0 0 1516.3 40" style="enable-background:new 0 0 1516.3 40;" xml:space="preserve">
<g id="PLAYER_APPEARS_WHEN_MOUSE_OVER_AREA_UNDER_SEARCH_BAR" transform="translate(-30 -940)">
	<g id="Group_146" transform="translate(721 -220)">
		<g id="Group_90" transform="translate(-881.64 1106)">
			<rect id="Rectangle_33" x="1143.5" y="54" width="2" height="40"/>
		</g>
		<g id="Group_93" transform="translate(-875.64 1106)">
			<rect id="Rectangle_33-2" x="1143.5" y="54" width="2" height="40"/>
		</g>
		<g id="Group_94" transform="translate(-869.64 1106)">
			<rect id="Rectangle_33-3" x="1143.5" y="54" width="2" height="40"/>
		</g>
		<g id="Group_95" transform="translate(-863.64 1106)">
			<rect id="Rectangle_33-4" x="1143.5" y="54" width="2" height="40"/>
		</g>
		<g id="Group_96" transform="translate(-857.64 1106)">
			<rect id="Rectangle_33-5" x="1143.5" y="54" width="2" height="40"/>
		</g>
		<g id="Group_97" transform="translate(-851.64 1106)">
			<rect id="Rectangle_33-6" x="1143.5" y="54" width="2" height="40"/>
		</g>
		<g id="Group_98" transform="translate(-845.64 1106)">
			<rect id="Rectangle_33-7" x="1143.5" y="54" width="2" height="40"/>
		</g>
		<g id="Group_99" transform="translate(-839.64 1106)">
			<rect id="Rectangle_33-8" x="1143.5" y="54" width="2" height="40"/>
		</g>
		<g id="Group_100" transform="translate(-833.64 1106)">
			<rect id="Rectangle_33-9" x="1143.5" y="54" width="2" height="40"/>
		</g>
		<g id="Group_101" transform="translate(-827.64 1106)">
			<rect id="Rectangle_33-10" x="1143.5" y="54" width="2" height="40"/>
		</g>
		<g id="Group_102" transform="translate(-821.64 1106)">
			<rect id="Rectangle_33-11" x="1143.5" y="54" width="2" height="40"/>
		</g>
		<g id="Group_103" transform="translate(-815.64 1106)">
			<rect id="Rectangle_33-12" x="1143.5" y="54" width="2" height="40"/>
		</g>
		<g id="Group_104" transform="translate(-809.64 1106)">
			<rect id="Rectangle_33-13" x="1143.5" y="54" width="2" height="40"/>
		</g>
		<g id="Group_105" transform="translate(-803.64 1106)">
			<rect id="Rectangle_33-14" x="1143.5" y="54" width="2" height="40"/>
		</g>
		<g id="Group_106" transform="translate(-797.64 1106)">
			<rect id="Rectangle_33-15" x="1143.5" y="54" width="2" height="40"/>
		</g>
		<g id="Group_107" transform="translate(-791.64 1106)">
			<rect id="Rectangle_33-16" x="1143.5" y="54" width="2" height="40"/>
		</g>
	</g>
	<g id="Group_148" transform="translate(816 -220)">
		<g id="Group_90-2" transform="translate(-881.64 1106)">
			<rect id="Rectangle_33-17" x="1143.5" y="54" width="2" height="40"/>
		</g>
		<g id="Group_93-2" transform="translate(-875.64 1106)">
			<rect id="Rectangle_33-18" x="1143.5" y="54" width="2" height="40"/>
		</g>
		<g id="Group_94-2" transform="translate(-869.64 1106)">
			<rect id="Rectangle_33-19" x="1143.5" y="54" width="2" height="40"/>
		</g>
		<g id="Group_95-2" transform="translate(-863.64 1106)">
			<rect id="Rectangle_33-20" x="1143.5" y="54" width="2" height="40"/>
		</g>
		<g id="Group_96-2" transform="translate(-857.64 1106)">
			<rect id="Rectangle_33-21" x="1143.5" y="54" width="2" height="40"/>
		</g>
		<g id="Group_97-2" transform="translate(-851.64 1106)">
			<rect id="Rectangle_33-22" x="1143.5" y="54" width="2" height="40"/>
		</g>
		<g id="Group_98-2" transform="translate(-845.64 1106)">
			<rect id="Rectangle_33-23" x="1143.5" y="54" width="2" height="40"/>
		</g>
		<g id="Group_99-2" transform="translate(-839.64 1106)">
			<rect id="Rectangle_33-24" x="1143.5" y="54" width="2" height="40"/>
		</g>
		<g id="Group_100-2" transform="translate(-833.64 1106)">
			<rect id="Rectangle_33-25" x="1143.5" y="54" width="2" height="40"/>
		</g>
		<g id="Group_101-2" transform="translate(-827.64 1106)">
			<rect id="Rectangle_33-26" x="1143.5" y="54" width="2" height="40"/>
		</g>
		<g id="Group_102-2" transform="translate(-821.64 1106)">
			<rect id="Rectangle_33-27" x="1143.5" y="54" width="2" height="40"/>
		</g>
		<g id="Group_103-2" transform="translate(-815.64 1106)">
			<rect id="Rectangle_33-28" x="1143.5" y="54" width="2" height="40"/>
		</g>
		<g id="Group_104-2" transform="translate(-809.64 1106)">
			<rect id="Rectangle_33-29" x="1143.5" y="54" width="2" height="40"/>
		</g>
		<g id="Group_105-2" transform="translate(-803.64 1106)">
			<rect id="Rectangle_33-30" x="1143.5" y="54" width="2" height="40"/>
		</g>
		<g id="Group_106-2" transform="translate(-797.64 1106)">
			<rect id="Rectangle_33-31" x="1143.5" y="54" width="2" height="40"/>
		</g>
		<g id="Group_107-2" transform="translate(-791.64 1106)">
			<rect id="Rectangle_33-32" x="1143.5" y="54" width="2" height="40"/>
		</g>
	</g>
	<g id="Group_149" transform="translate(531 -220)">
		<g id="Group_90-3" transform="translate(-881.64 1106)">
			<rect id="Rectangle_33-33" x="1143.5" y="54" width="2" height="40"/>
		</g>
		<g id="Group_93-3" transform="translate(-875.64 1106)">
			<rect id="Rectangle_33-34" x="1143.5" y="54" width="2" height="40"/>
		</g>
		<g id="Group_94-3" transform="translate(-869.64 1106)">
			<rect id="Rectangle_33-35" x="1143.5" y="54" width="2" height="40"/>
		</g>
		<g id="Group_95-3" transform="translate(-863.64 1106)">
			<rect id="Rectangle_33-36" x="1143.5" y="54" width="2" height="40"/>
		</g>
		<g id="Group_96-3" transform="translate(-857.64 1106)">
			<rect id="Rectangle_33-37" x="1143.5" y="54" width="2" height="40"/>
		</g>
		<g id="Group_97-3" transform="translate(-851.64 1106)">
			<rect id="Rectangle_33-38" x="1143.5" y="54" width="2" height="40"/>
		</g>
		<g id="Group_98-3" transform="translate(-845.64 1106)">
			<rect id="Rectangle_33-39" x="1143.5" y="54" width="2" height="40"/>
		</g>
		<g id="Group_99-3" transform="translate(-839.64 1106)">
			<rect id="Rectangle_33-40" x="1143.5" y="54" width="2" height="40"/>
		</g>
		<g id="Group_100-3" transform="translate(-833.64 1106)">
			<rect id="Rectangle_33-41" x="1143.5" y="54" width="2" height="40"/>
		</g>
		<g id="Group_101-3" transform="translate(-827.64 1106)">
			<rect id="Rectangle_33-42" x="1143.5" y="54" width="2" height="40"/>
		</g>
		<g id="Group_102-3" transform="translate(-821.64 1106)">
			<rect id="Rectangle_33-43" x="1143.5" y="54" width="2" height="40"/>
		</g>
		<g id="Group_103-3" transform="translate(-815.64 1106)">
			<rect id="Rectangle_33-44" x="1143.5" y="54" width="2" height="40"/>
		</g>
		<g id="Group_104-3" transform="translate(-809.64 1106)">
			<rect id="Rectangle_33-45" x="1143.5" y="54" width="2" height="40"/>
		</g>
		<g id="Group_105-3" transform="translate(-803.64 1106)">
			<rect id="Rectangle_33-46" x="1143.5" y="54" width="2" height="40"/>
		</g>
		<g id="Group_106-3" transform="translate(-797.64 1106)">
			<rect id="Rectangle_33-47" x="1143.5" y="54" width="2" height="40"/>
		</g>
		<g id="Group_107-3" transform="translate(-791.64 1106)">
			<rect id="Rectangle_33-48" x="1143.5" y="54" width="2" height="40"/>
		</g>
	</g>
	<g id="Group_150" transform="translate(626 -220)">
		<g id="Group_90-4" transform="translate(-881.64 1106)">
			<rect id="Rectangle_33-49" x="1143.5" y="54" width="2" height="40"/>
		</g>
		<g id="Group_93-4" transform="translate(-875.64 1106)">
			<rect id="Rectangle_33-50" x="1143.5" y="54" width="2" height="40"/>
		</g>
		<g id="Group_94-4" transform="translate(-869.64 1106)">
			<rect id="Rectangle_33-51" x="1143.5" y="54" width="2" height="40"/>
		</g>
		<g id="Group_95-4" transform="translate(-863.64 1106)">
			<rect id="Rectangle_33-52" x="1143.5" y="54" width="2" height="40"/>
		</g>
		<g id="Group_96-4" transform="translate(-857.64 1106)">
			<rect id="Rectangle_33-53" x="1143.5" y="54" width="2" height="40"/>
		</g>
		<g id="Group_97-4" transform="translate(-851.64 1106)">
			<rect id="Rectangle_33-54" x="1143.5" y="54" width="2" height="40"/>
		</g>
		<g id="Group_98-4" transform="translate(-845.64 1106)">
			<rect id="Rectangle_33-55" x="1143.5" y="54" width="2" height="40"/>
		</g>
		<g id="Group_99-4" transform="translate(-839.64 1106)">
			<rect id="Rectangle_33-56" x="1143.5" y="54" width="2" height="40"/>
		</g>
		<g id="Group_100-4" transform="translate(-833.64 1106)">
			<rect id="Rectangle_33-57" x="1143.5" y="54" width="2" height="40"/>
		</g>
		<g id="Group_101-4" transform="translate(-827.64 1106)">
			<rect id="Rectangle_33-58" x="1143.5" y="54" width="2" height="40"/>
		</g>
		<g id="Group_102-4" transform="translate(-821.64 1106)">
			<rect id="Rectangle_33-59" x="1143.5" y="54" width="2" height="40"/>
		</g>
		<g id="Group_103-4" transform="translate(-815.64 1106)">
			<rect id="Rectangle_33-60" x="1143.5" y="54" width="2" height="40"/>
		</g>
		<g id="Group_104-4" transform="translate(-809.64 1106)">
			<rect id="Rectangle_33-61" x="1143.5" y="54" width="2" height="40"/>
		</g>
		<g id="Group_105-4" transform="translate(-803.64 1106)">
			<rect id="Rectangle_33-62" x="1143.5" y="54" width="2" height="40"/>
		</g>
		<g id="Group_106-4" transform="translate(-797.64 1106)">
			<rect id="Rectangle_33-63" x="1143.5" y="54" width="2" height="40"/>
		</g>
		<g id="Group_107-4" transform="translate(-791.64 1106)">
			<rect id="Rectangle_33-64" x="1143.5" y="54" width="2" height="40"/>
		</g>
	</g>
	<g id="Group_151" transform="translate(341 -220)">
		<g id="Group_90-5" transform="translate(-881.64 1106)">
			<rect id="Rectangle_33-65" x="1143.5" y="54" width="2" height="40"/>
		</g>
		<g id="Group_93-5" transform="translate(-875.64 1106)">
			<rect id="Rectangle_33-66" x="1143.5" y="54" width="2" height="40"/>
		</g>
		<g id="Group_94-5" transform="translate(-869.64 1106)">
			<rect id="Rectangle_33-67" x="1143.5" y="54" width="2" height="40"/>
		</g>
		<g id="Group_95-5" transform="translate(-863.64 1106)">
			<rect id="Rectangle_33-68" x="1143.5" y="54" width="2" height="40"/>
		</g>
		<g id="Group_96-5" transform="translate(-857.64 1106)">
			<rect id="Rectangle_33-69" x="1143.5" y="54" width="2" height="40"/>
		</g>
		<g id="Group_97-5" transform="translate(-851.64 1106)">
			<rect id="Rectangle_33-70" x="1143.5" y="54" width="2" height="40"/>
		</g>
		<g id="Group_98-5" transform="translate(-845.64 1106)">
			<rect id="Rectangle_33-71" x="1143.5" y="54" width="2" height="40"/>
		</g>
		<g id="Group_99-5" transform="translate(-839.64 1106)">
			<rect id="Rectangle_33-72" x="1143.5" y="54" width="2" height="40"/>
		</g>
		<g id="Group_100-5" transform="translate(-833.64 1106)">
			<rect id="Rectangle_33-73" x="1143.5" y="54" width="2" height="40"/>
		</g>
		<g id="Group_101-5" transform="translate(-827.64 1106)">
			<rect id="Rectangle_33-74" x="1143.5" y="54" width="2" height="40"/>
		</g>
		<g id="Group_102-5" transform="translate(-821.64 1106)">
			<rect id="Rectangle_33-75" x="1143.5" y="54" width="2" height="40"/>
		</g>
		<g id="Group_103-5" transform="translate(-815.64 1106)">
			<rect id="Rectangle_33-76" x="1143.5" y="54" width="2" height="40"/>
		</g>
		<g id="Group_104-5" transform="translate(-809.64 1106)">
			<rect id="Rectangle_33-77" x="1143.5" y="54" width="2" height="40"/>
		</g>
		<g id="Group_105-5" transform="translate(-803.64 1106)">
			<rect id="Rectangle_33-78" x="1143.5" y="54" width="2" height="40"/>
		</g>
		<g id="Group_106-5" transform="translate(-797.64 1106)">
			<rect id="Rectangle_33-79" x="1143.5" y="54" width="2" height="40"/>
		</g>
		<g id="Group_107-5" transform="translate(-791.64 1106)">
			<rect id="Rectangle_33-80" x="1143.5" y="54" width="2" height="40"/>
		</g>
	</g>
	<g id="Group_152" transform="translate(436 -220)">
		<g id="Group_90-6" transform="translate(-881.64 1106)">
			<rect id="Rectangle_33-81" x="1143.5" y="54" width="2" height="40"/>
		</g>
		<g id="Group_93-6" transform="translate(-875.64 1106)">
			<rect id="Rectangle_33-82" x="1143.5" y="54" width="2" height="40"/>
		</g>
		<g id="Group_94-6" transform="translate(-869.64 1106)">
			<rect id="Rectangle_33-83" x="1143.5" y="54" width="2" height="40"/>
		</g>
		<g id="Group_95-6" transform="translate(-863.64 1106)">
			<rect id="Rectangle_33-84" x="1143.5" y="54" width="2" height="40"/>
		</g>
		<g id="Group_96-6" transform="translate(-857.64 1106)">
			<rect id="Rectangle_33-85" x="1143.5" y="54" width="2" height="40"/>
		</g>
		<g id="Group_97-6" transform="translate(-851.64 1106)">
			<rect id="Rectangle_33-86" x="1143.5" y="54" width="2" height="40"/>
		</g>
		<g id="Group_98-6" transform="translate(-845.64 1106)">
			<rect id="Rectangle_33-87" x="1143.5" y="54" width="2" height="40"/>
		</g>
		<g id="Group_99-6" transform="translate(-839.64 1106)">
			<rect id="Rectangle_33-88" x="1143.5" y="54" width="2" height="40"/>
		</g>
		<g id="Group_100-6" transform="translate(-833.64 1106)">
			<rect id="Rectangle_33-89" x="1143.5" y="54" width="2" height="40"/>
		</g>
		<g id="Group_101-6" transform="translate(-827.64 1106)">
			<rect id="Rectangle_33-90" x="1143.5" y="54" width="2" height="40"/>
		</g>
		<g id="Group_102-6" transform="translate(-821.64 1106)">
			<rect id="Rectangle_33-91" x="1143.5" y="54" width="2" height="40"/>
		</g>
		<g id="Group_103-6" transform="translate(-815.64 1106)">
			<rect id="Rectangle_33-92" x="1143.5" y="54" width="2" height="40"/>
		</g>
		<g id="Group_104-6" transform="translate(-809.64 1106)">
			<rect id="Rectangle_33-93" x="1143.5" y="54" width="2" height="40"/>
		</g>
		<g id="Group_105-6" transform="translate(-803.64 1106)">
			<rect id="Rectangle_33-94" x="1143.5" y="54" width="2" height="40"/>
		</g>
		<g id="Group_106-6" transform="translate(-797.64 1106)">
			<rect id="Rectangle_33-95" x="1143.5" y="54" width="2" height="40"/>
		</g>
		<g id="Group_107-6" transform="translate(-791.64 1106)">
			<rect id="Rectangle_33-96" x="1143.5" y="54" width="2" height="40"/>
		</g>
	</g>
	<g id="Group_153" transform="translate(151 -220)">
		<g id="Group_90-7" transform="translate(-881.64 1106)">
			<rect id="Rectangle_33-97" x="1143.5" y="54" width="2" height="40"/>
		</g>
		<g id="Group_93-7" transform="translate(-875.64 1106)">
			<rect id="Rectangle_33-98" x="1143.5" y="54" width="2" height="40"/>
		</g>
		<g id="Group_94-7" transform="translate(-869.64 1106)">
			<rect id="Rectangle_33-99" x="1143.5" y="54" width="2" height="40"/>
		</g>
		<g id="Group_95-7" transform="translate(-863.64 1106)">
			<rect id="Rectangle_33-100" x="1143.5" y="54" width="2" height="40"/>
		</g>
		<g id="Group_96-7" transform="translate(-857.64 1106)">
			<rect id="Rectangle_33-101" x="1143.5" y="54" width="2" height="40"/>
		</g>
		<g id="Group_97-7" transform="translate(-851.64 1106)">
			<rect id="Rectangle_33-102" x="1143.5" y="54" width="2" height="40"/>
		</g>
		<g id="Group_98-7" transform="translate(-845.64 1106)">
			<rect id="Rectangle_33-103" x="1143.5" y="54" width="2" height="40"/>
		</g>
		<g id="Group_99-7" transform="translate(-839.64 1106)">
			<rect id="Rectangle_33-104" x="1143.5" y="54" width="2" height="40"/>
		</g>
		<g id="Group_100-7" transform="translate(-833.64 1106)">
			<rect id="Rectangle_33-105" x="1143.5" y="54" width="2" height="40"/>
		</g>
		<g id="Group_101-7" transform="translate(-827.64 1106)">
			<rect id="Rectangle_33-106" x="1143.5" y="54" width="2" height="40"/>
		</g>
		<g id="Group_102-7" transform="translate(-821.64 1106)">
			<rect id="Rectangle_33-107" x="1143.5" y="54" width="2" height="40"/>
		</g>
		<g id="Group_103-7" transform="translate(-815.64 1106)">
			<rect id="Rectangle_33-108" x="1143.5" y="54" width="2" height="40"/>
		</g>
		<g id="Group_104-7" transform="translate(-809.64 1106)">
			<rect id="Rectangle_33-109" x="1143.5" y="54" width="2" height="40"/>
		</g>
		<g id="Group_105-7" transform="translate(-803.64 1106)">
			<rect id="Rectangle_33-110" x="1143.5" y="54" width="2" height="40"/>
		</g>
		<g id="Group_106-7" transform="translate(-797.64 1106)">
			<rect id="Rectangle_33-111" x="1143.5" y="54" width="2" height="40"/>
		</g>
		<g id="Group_107-7" transform="translate(-791.64 1106)">
			<rect id="Rectangle_33-112" x="1143.5" y="54" width="2" height="40"/>
		</g>
	</g>
	<g id="Group_154" transform="translate(246 -220)">
		<g id="Group_90-8" transform="translate(-881.64 1106)">
			<rect id="Rectangle_33-113" x="1143.5" y="54" width="2" height="40"/>
		</g>
		<g id="Group_93-8" transform="translate(-875.64 1106)">
			<rect id="Rectangle_33-114" x="1143.5" y="54" width="2" height="40"/>
		</g>
		<g id="Group_94-8" transform="translate(-869.64 1106)">
			<rect id="Rectangle_33-115" x="1143.5" y="54" width="2" height="40"/>
		</g>
		<g id="Group_95-8" transform="translate(-863.64 1106)">
			<rect id="Rectangle_33-116" x="1143.5" y="54" width="2" height="40"/>
		</g>
		<g id="Group_96-8" transform="translate(-857.64 1106)">
			<rect id="Rectangle_33-117" x="1143.5" y="54" width="2" height="40"/>
		</g>
		<g id="Group_97-8" transform="translate(-851.64 1106)">
			<rect id="Rectangle_33-118" x="1143.5" y="54" width="2" height="40"/>
		</g>
		<g id="Group_98-8" transform="translate(-845.64 1106)">
			<rect id="Rectangle_33-119" x="1143.5" y="54" width="2" height="40"/>
		</g>
		<g id="Group_99-8" transform="translate(-839.64 1106)">
			<rect id="Rectangle_33-120" x="1143.5" y="54" width="2" height="40"/>
		</g>
		<g id="Group_100-8" transform="translate(-833.64 1106)">
			<rect id="Rectangle_33-121" x="1143.5" y="54" width="2" height="40"/>
		</g>
		<g id="Group_101-8" transform="translate(-827.64 1106)">
			<rect id="Rectangle_33-122" x="1143.5" y="54" width="2" height="40"/>
		</g>
		<g id="Group_102-8" transform="translate(-821.64 1106)">
			<rect id="Rectangle_33-123" x="1143.5" y="54" width="2" height="40"/>
		</g>
		<g id="Group_103-8" transform="translate(-815.64 1106)">
			<rect id="Rectangle_33-124" x="1143.5" y="54" width="2" height="40"/>
		</g>
		<g id="Group_104-8" transform="translate(-809.64 1106)">
			<rect id="Rectangle_33-125" x="1143.5" y="54" width="2" height="40"/>
		</g>
		<g id="Group_105-8" transform="translate(-803.64 1106)">
			<rect id="Rectangle_33-126" x="1143.5" y="54" width="2" height="40"/>
		</g>
		<g id="Group_106-8" transform="translate(-797.64 1106)">
			<rect id="Rectangle_33-127" x="1143.5" y="54" width="2" height="40"/>
		</g>
		<g id="Group_107-8" transform="translate(-791.64 1106)">
			<rect id="Rectangle_33-128" x="1143.5" y="54" width="2" height="40"/>
		</g>
	</g>
	<g id="Group_155" transform="translate(56 -220)">
		<g id="Group_90-9" transform="translate(-881.64 1106)">
			<rect id="Rectangle_33-129" x="1143.5" y="54" width="2" height="40"/>
		</g>
		<g id="Group_93-9" transform="translate(-875.64 1106)">
			<rect id="Rectangle_33-130" x="1143.5" y="54" width="2" height="40"/>
		</g>
		<g id="Group_94-9" transform="translate(-869.64 1106)">
			<rect id="Rectangle_33-131" x="1143.5" y="54" width="2" height="40"/>
		</g>
		<g id="Group_95-9" transform="translate(-863.64 1106)">
			<rect id="Rectangle_33-132" x="1143.5" y="54" width="2" height="40"/>
		</g>
		<g id="Group_96-9" transform="translate(-857.64 1106)">
			<rect id="Rectangle_33-133" x="1143.5" y="54" width="2" height="40"/>
		</g>
		<g id="Group_97-9" transform="translate(-851.64 1106)">
			<rect id="Rectangle_33-134" x="1143.5" y="54" width="2" height="40"/>
		</g>
		<g id="Group_98-9" transform="translate(-845.64 1106)">
			<rect id="Rectangle_33-135" x="1143.5" y="54" width="2" height="40"/>
		</g>
		<g id="Group_99-9" transform="translate(-839.64 1106)">
			<rect id="Rectangle_33-136" x="1143.5" y="54" width="2" height="40"/>
		</g>
		<g id="Group_100-9" transform="translate(-833.64 1106)">
			<rect id="Rectangle_33-137" x="1143.5" y="54" width="2" height="40"/>
		</g>
		<g id="Group_101-9" transform="translate(-827.64 1106)">
			<rect id="Rectangle_33-138" x="1143.5" y="54" width="2" height="40"/>
		</g>
		<g id="Group_102-9" transform="translate(-821.64 1106)">
			<rect id="Rectangle_33-139" x="1143.5" y="54" width="2" height="40"/>
		</g>
		<g id="Group_103-9" transform="translate(-815.64 1106)">
			<rect id="Rectangle_33-140" x="1143.5" y="54" width="2" height="40"/>
		</g>
		<g id="Group_104-9" transform="translate(-809.64 1106)">
			<rect id="Rectangle_33-141" x="1143.5" y="54" width="2" height="40"/>
		</g>
		<g id="Group_105-9" transform="translate(-803.64 1106)">
			<rect id="Rectangle_33-142" x="1143.5" y="54" width="2" height="40"/>
		</g>
		<g id="Group_106-9" transform="translate(-797.64 1106)">
			<rect id="Rectangle_33-143" x="1143.5" y="54" width="2" height="40"/>
		</g>
		<g id="Group_107-9" transform="translate(-791.64 1106)">
			<rect id="Rectangle_33-144" x="1143.5" y="54" width="2" height="40"/>
		</g>
	</g>
	<g id="Group_156" transform="translate(-134 -220)">
		<g id="Group_90-10" transform="translate(-881.64 1106)">
			<rect id="Rectangle_33-145" x="1143.5" y="54" width="2" height="40"/>
		</g>
		<g id="Group_93-10" transform="translate(-875.64 1106)">
			<rect id="Rectangle_33-146" x="1143.5" y="54" width="2" height="40"/>
		</g>
		<g id="Group_94-10" transform="translate(-869.64 1106)">
			<rect id="Rectangle_33-147" x="1143.5" y="54" width="2" height="40"/>
		</g>
		<g id="Group_95-10" transform="translate(-863.64 1106)">
			<rect id="Rectangle_33-148" x="1143.5" y="54" width="2" height="40"/>
		</g>
		<g id="Group_96-10" transform="translate(-857.64 1106)">
			<rect id="Rectangle_33-149" x="1143.5" y="54" width="2" height="40"/>
		</g>
		<g id="Group_97-10" transform="translate(-851.64 1106)">
			<rect id="Rectangle_33-150" x="1143.5" y="54" width="2" height="40"/>
		</g>
		<g id="Group_98-10" transform="translate(-845.64 1106)">
			<rect id="Rectangle_33-151" x="1143.5" y="54" width="2" height="40"/>
		</g>
		<g id="Group_99-10" transform="translate(-839.64 1106)">
			<rect id="Rectangle_33-152" x="1143.5" y="54" width="2" height="40"/>
		</g>
		<g id="Group_100-10" transform="translate(-833.64 1106)">
			<rect id="Rectangle_33-153" x="1143.5" y="54" width="2" height="40"/>
		</g>
		<g id="Group_101-10" transform="translate(-827.64 1106)">
			<rect id="Rectangle_33-154" x="1143.5" y="54" width="2" height="40"/>
		</g>
		<g id="Group_102-10" transform="translate(-821.64 1106)">
			<rect id="Rectangle_33-155" x="1143.5" y="54" width="2" height="40"/>
		</g>
		<g id="Group_103-10" transform="translate(-815.64 1106)">
			<rect id="Rectangle_33-156" x="1143.5" y="54" width="2" height="40"/>
		</g>
		<g id="Group_104-10" transform="translate(-809.64 1106)">
			<rect id="Rectangle_33-157" x="1143.5" y="54" width="2" height="40"/>
		</g>
		<g id="Group_105-10" transform="translate(-803.64 1106)">
			<rect id="Rectangle_33-158" x="1143.5" y="54" width="2" height="40"/>
		</g>
		<g id="Group_106-10" transform="translate(-797.64 1106)">
			<rect id="Rectangle_33-159" x="1143.5" y="54" width="2" height="40"/>
		</g>
		<g id="Group_107-10" transform="translate(-791.64 1106)">
			<rect id="Rectangle_33-160" x="1143.5" y="54" width="2" height="40"/>
		</g>
	</g>
	<g id="Group_157" transform="translate(-39 -220)">
		<g id="Group_90-11" transform="translate(-881.64 1106)">
			<rect id="Rectangle_33-161" x="1143.5" y="54" width="2" height="40"/>
		</g>
		<g id="Group_93-11" transform="translate(-875.64 1106)">
			<rect id="Rectangle_33-162" x="1143.5" y="54" width="2" height="40"/>
		</g>
		<g id="Group_94-11" transform="translate(-869.64 1106)">
			<rect id="Rectangle_33-163" x="1143.5" y="54" width="2" height="40"/>
		</g>
		<g id="Group_95-11" transform="translate(-863.64 1106)">
			<rect id="Rectangle_33-164" x="1143.5" y="54" width="2" height="40"/>
		</g>
		<g id="Group_96-11" transform="translate(-857.64 1106)">
			<rect id="Rectangle_33-165" x="1143.5" y="54" width="2" height="40"/>
		</g>
		<g id="Group_97-11" transform="translate(-851.64 1106)">
			<rect id="Rectangle_33-166" x="1143.5" y="54" width="2" height="40"/>
		</g>
		<g id="Group_98-11" transform="translate(-845.64 1106)">
			<rect id="Rectangle_33-167" x="1143.5" y="54" width="2" height="40"/>
		</g>
		<g id="Group_99-11" transform="translate(-839.64 1106)">
			<rect id="Rectangle_33-168" x="1143.5" y="54" width="2" height="40"/>
		</g>
		<g id="Group_100-11" transform="translate(-833.64 1106)">
			<rect id="Rectangle_33-169" x="1143.5" y="54" width="2" height="40"/>
		</g>
		<g id="Group_101-11" transform="translate(-827.64 1106)">
			<rect id="Rectangle_33-170" x="1143.5" y="54" width="2" height="40"/>
		</g>
		<g id="Group_102-11" transform="translate(-821.64 1106)">
			<rect id="Rectangle_33-171" x="1143.5" y="54" width="2" height="40"/>
		</g>
		<g id="Group_103-11" transform="translate(-815.64 1106)">
			<rect id="Rectangle_33-172" x="1143.5" y="54" width="2" height="40"/>
		</g>
		<g id="Group_104-11" transform="translate(-809.64 1106)">
			<rect id="Rectangle_33-173" x="1143.5" y="54" width="2" height="40"/>
		</g>
		<g id="Group_105-11" transform="translate(-803.64 1106)">
			<rect id="Rectangle_33-174" x="1143.5" y="54" width="2" height="40"/>
		</g>
		<g id="Group_106-11" transform="translate(-797.64 1106)">
			<rect id="Rectangle_33-175" x="1143.5" y="54" width="2" height="40"/>
		</g>
		<g id="Group_107-11" transform="translate(-791.64 1106)">
			<rect id="Rectangle_33-176" x="1143.5" y="54" width="2" height="40"/>
		</g>
	</g>
	<g id="Group_158" transform="translate(-229 -220)">
		<g id="Group_90-12" transform="translate(-881.64 1106)">
			<rect id="Rectangle_33-177" x="1143.5" y="54" width="2" height="40"/>
		</g>
		<g id="Group_93-12" transform="translate(-875.64 1106)">
			<rect id="Rectangle_33-178" x="1143.5" y="54" width="2" height="40"/>
		</g>
		<g id="Group_94-12" transform="translate(-869.64 1106)">
			<rect id="Rectangle_33-179" x="1143.5" y="54" width="2" height="40"/>
		</g>
		<g id="Group_95-12" transform="translate(-863.64 1106)">
			<rect id="Rectangle_33-180" x="1143.5" y="54" width="2" height="40"/>
		</g>
		<g id="Group_96-12" transform="translate(-857.64 1106)">
			<rect id="Rectangle_33-181" x="1143.5" y="54" width="2" height="40"/>
		</g>
		<g id="Group_97-12" transform="translate(-851.64 1106)">
			<rect id="Rectangle_33-182" x="1143.5" y="54" width="2" height="40"/>
		</g>
		<g id="Group_98-12" transform="translate(-845.64 1106)">
			<rect id="Rectangle_33-183" x="1143.5" y="54" width="2" height="40"/>
		</g>
		<g id="Group_99-12" transform="translate(-839.64 1106)">
			<rect id="Rectangle_33-184" x="1143.5" y="54" width="2" height="40"/>
		</g>
		<g id="Group_100-12" transform="translate(-833.64 1106)">
			<rect id="Rectangle_33-185" x="1143.5" y="54" width="2" height="40"/>
		</g>
		<g id="Group_101-12" transform="translate(-827.64 1106)">
			<rect id="Rectangle_33-186" x="1143.5" y="54" width="2" height="40"/>
		</g>
		<g id="Group_102-12" transform="translate(-821.64 1106)">
			<rect id="Rectangle_33-187" x="1143.5" y="54" width="2" height="40"/>
		</g>
		<g id="Group_103-12" transform="translate(-815.64 1106)">
			<rect id="Rectangle_33-188" x="1143.5" y="54" width="2" height="40"/>
		</g>
		<g id="Group_104-12" transform="translate(-809.64 1106)">
			<rect id="Rectangle_33-189" x="1143.5" y="54" width="2" height="40"/>
		</g>
		<g id="Group_105-12" transform="translate(-803.64 1106)">
			<rect id="Rectangle_33-190" x="1143.5" y="54" width="2" height="40"/>
		</g>
		<g id="Group_106-12" transform="translate(-797.64 1106)">
			<rect id="Rectangle_33-191" x="1143.5" y="54" width="2" height="40"/>
		</g>
		<g id="Group_107-12" transform="translate(-791.64 1106)">
			<rect id="Rectangle_33-192" x="1143.5" y="54" width="2" height="40"/>
		</g>
	</g>
	<g id="Group_159" transform="translate(911 -220)">
		<g id="Group_90-13" transform="translate(-881.64 1106)">
			<rect id="Rectangle_33-193" x="1143.5" y="54" width="2" height="40"/>
		</g>
		<g id="Group_93-13" transform="translate(-875.64 1106)">
			<rect id="Rectangle_33-194" x="1143.5" y="54" width="2" height="40"/>
		</g>
		<g id="Group_94-13" transform="translate(-869.64 1106)">
			<rect id="Rectangle_33-195" x="1143.5" y="54" width="2" height="40"/>
		</g>
		<g id="Group_95-13" transform="translate(-863.64 1106)">
			<rect id="Rectangle_33-196" x="1143.5" y="54" width="2" height="40"/>
		</g>
		<g id="Group_96-13" transform="translate(-857.64 1106)">
			<rect id="Rectangle_33-197" x="1143.5" y="54" width="2" height="40"/>
		</g>
		<g id="Group_97-13" transform="translate(-851.64 1106)">
			<rect id="Rectangle_33-198" x="1143.5" y="54" width="2" height="40"/>
		</g>
		<g id="Group_98-13" transform="translate(-845.64 1106)">
			<rect id="Rectangle_33-199" x="1143.5" y="54" width="2" height="40"/>
		</g>
		<g id="Group_99-13" transform="translate(-839.64 1106)">
			<rect id="Rectangle_33-200" x="1143.5" y="54" width="2" height="40"/>
		</g>
		<g id="Group_100-13" transform="translate(-833.64 1106)">
			<rect id="Rectangle_33-201" x="1143.5" y="54" width="2" height="40"/>
		</g>
		<g id="Group_101-13" transform="translate(-827.64 1106)">
			<rect id="Rectangle_33-202" x="1143.5" y="54" width="2" height="40"/>
		</g>
		<g id="Group_102-13" transform="translate(-821.64 1106)">
			<rect id="Rectangle_33-203" x="1143.5" y="54" width="2" height="40"/>
		</g>
		<g id="Group_103-13" transform="translate(-815.64 1106)">
			<rect id="Rectangle_33-204" x="1143.5" y="54" width="2" height="40"/>
		</g>
		<g id="Group_104-13" transform="translate(-809.64 1106)">
			<rect id="Rectangle_33-205" x="1143.5" y="54" width="2" height="40"/>
		</g>
		<g id="Group_105-13" transform="translate(-803.64 1106)">
			<rect id="Rectangle_33-206" x="1143.5" y="54" width="2" height="40"/>
		</g>
		<g id="Group_106-13" transform="translate(-797.64 1106)">
			<rect id="Rectangle_33-207" x="1143.5" y="54" width="2" height="40"/>
		</g>
		<g id="Group_107-13" transform="translate(-791.64 1106)">
			<rect id="Rectangle_33-208" x="1143.5" y="54" width="2" height="40"/>
		</g>
	</g>
	<g id="Group_160" transform="translate(1006 -220)">
		<g id="Group_90-14" transform="translate(-881.64 1106)">
			<rect id="Rectangle_33-209" x="1143.5" y="54" width="2" height="40"/>
		</g>
		<g id="Group_93-14" transform="translate(-875.64 1106)">
			<rect id="Rectangle_33-210" x="1143.5" y="54" width="2" height="40"/>
		</g>
		<g id="Group_94-14" transform="translate(-869.64 1106)">
			<rect id="Rectangle_33-211" x="1143.5" y="54" width="2" height="40"/>
		</g>
		<g id="Group_95-14" transform="translate(-863.64 1106)">
			<rect id="Rectangle_33-212" x="1143.5" y="54" width="2" height="40"/>
		</g>
		<g id="Group_96-14" transform="translate(-857.64 1106)">
			<rect id="Rectangle_33-213" x="1143.5" y="54" width="2" height="40"/>
		</g>
		<g id="Group_97-14" transform="translate(-851.64 1106)">
			<rect id="Rectangle_33-214" x="1143.5" y="54" width="2" height="40"/>
		</g>
		<g id="Group_98-14" transform="translate(-845.64 1106)">
			<rect id="Rectangle_33-215" x="1143.5" y="54" width="2" height="40"/>
		</g>
		<g id="Group_99-14" transform="translate(-839.64 1106)">
			<rect id="Rectangle_33-216" x="1143.5" y="54" width="2" height="40"/>
		</g>
		<g id="Group_100-14" transform="translate(-833.64 1106)">
			<rect id="Rectangle_33-217" x="1143.5" y="54" width="2" height="40"/>
		</g>
		<g id="Group_101-14" transform="translate(-827.64 1106)">
			<rect id="Rectangle_33-218" x="1143.5" y="54" width="2" height="40"/>
		</g>
		<g id="Group_102-14" transform="translate(-821.64 1106)">
			<rect id="Rectangle_33-219" x="1143.5" y="54" width="2" height="40"/>
		</g>
		<g id="Group_103-14" transform="translate(-815.64 1106)">
			<rect id="Rectangle_33-220" x="1143.5" y="54" width="2" height="40"/>
		</g>
		<g id="Group_104-14" transform="translate(-809.64 1106)">
			<rect id="Rectangle_33-221" x="1143.5" y="54" width="2" height="40"/>
		</g>
		<g id="Group_105-14" transform="translate(-803.64 1106)">
			<rect id="Rectangle_33-222" x="1143.5" y="54" width="2" height="40"/>
		</g>
		<g id="Group_106-14" transform="translate(-797.64 1106)">
			<rect id="Rectangle_33-223" x="1143.5" y="54" width="2" height="40"/>
		</g>
		<g id="Group_107-14" transform="translate(-791.64 1106)">
			<rect id="Rectangle_33-224" x="1143.5" y="54" width="2" height="40"/>
		</g>
	</g>
	<g id="Group_161" transform="translate(1101 -220)">
		<g id="Group_90-15" transform="translate(-881.64 1106)">
			<rect id="Rectangle_33-225" x="1143.5" y="54" width="2" height="40"/>
		</g>
		<g id="Group_93-15" transform="translate(-875.64 1106)">
			<rect id="Rectangle_33-226" x="1143.5" y="54" width="2" height="40"/>
		</g>
		<g id="Group_94-15" transform="translate(-869.64 1106)">
			<rect id="Rectangle_33-227" x="1143.5" y="54" width="2" height="40"/>
		</g>
		<g id="Group_95-15" transform="translate(-863.64 1106)">
			<rect id="Rectangle_33-228" x="1143.5" y="54" width="2" height="40"/>
		</g>
		<g id="Group_96-15" transform="translate(-857.64 1106)">
			<rect id="Rectangle_33-229" x="1143.5" y="54" width="2" height="40"/>
		</g>
		<g id="Group_97-15" transform="translate(-851.64 1106)">
			<rect id="Rectangle_33-230" x="1143.5" y="54" width="2" height="40"/>
		</g>
		<g id="Group_98-15" transform="translate(-845.64 1106)">
			<rect id="Rectangle_33-231" x="1143.5" y="54" width="2" height="40"/>
		</g>
		<g id="Group_99-15" transform="translate(-839.64 1106)">
			<rect id="Rectangle_33-232" x="1143.5" y="54" width="2" height="40"/>
		</g>
		<g id="Group_100-15" transform="translate(-833.64 1106)">
			<rect id="Rectangle_33-233" x="1143.5" y="54" width="2" height="40"/>
		</g>
		<g id="Group_101-15" transform="translate(-827.64 1106)">
			<rect id="Rectangle_33-234" x="1143.5" y="54" width="2" height="40"/>
		</g>
		<g id="Group_102-15" transform="translate(-821.64 1106)">
			<rect id="Rectangle_33-235" x="1143.5" y="54" width="2" height="40"/>
		</g>
		<g id="Group_103-15" transform="translate(-815.64 1106)">
			<rect id="Rectangle_33-236" x="1143.5" y="54" width="2" height="40"/>
		</g>
		<g id="Group_104-15" transform="translate(-809.64 1106)">
			<rect id="Rectangle_33-237" x="1143.5" y="54" width="2" height="40"/>
		</g>
		<g id="Group_105-15" transform="translate(-803.64 1106)">
			<rect id="Rectangle_33-238" x="1143.5" y="54" width="2" height="40"/>
		</g>
		<g id="Group_106-15" transform="translate(-797.64 1106)">
			<rect id="Rectangle_33-239" x="1143.5" y="54" width="2" height="40"/>
		</g>
		<g id="Group_107-15" transform="translate(-791.64 1106)">
			<rect id="Rectangle_33-240" x="1143.5" y="54" width="2" height="40"/>
		</g>
	</g>
	<g id="Group_162" transform="translate(1196 -220)">
		<g id="Group_90-16" transform="translate(-881.64 1106)">
			<rect id="Rectangle_33-241" x="1143.5" y="54" width="2" height="40"/>
		</g>
		<g id="Group_93-16" transform="translate(-875.64 1106)">
			<rect id="Rectangle_33-242" x="1143.5" y="54" width="2" height="40"/>
		</g>
		<g id="Group_94-16" transform="translate(-869.64 1106)">
			<rect id="Rectangle_33-243" x="1143.5" y="54" width="2" height="40"/>
		</g>
		<g id="Group_95-16" transform="translate(-863.64 1106)">
			<rect id="Rectangle_33-244" x="1143.5" y="54" width="2" height="40"/>
		</g>
		<g id="Group_96-16" transform="translate(-857.64 1106)">
			<rect id="Rectangle_33-245" x="1143.5" y="54" width="2" height="40"/>
		</g>
		<g id="Group_97-16" transform="translate(-851.64 1106)">
			<rect id="Rectangle_33-246" x="1143.5" y="54" width="2" height="40"/>
		</g>
		<g id="Group_98-16" transform="translate(-845.64 1106)">
			<rect id="Rectangle_33-247" x="1143.5" y="54" width="2" height="40"/>
		</g>
		<g id="Group_99-16" transform="translate(-839.64 1106)">
			<rect id="Rectangle_33-248" x="1143.5" y="54" width="2" height="40"/>
		</g>
		<g id="Group_100-16" transform="translate(-833.64 1106)">
			<rect id="Rectangle_33-249" x="1143.5" y="54" width="2" height="40"/>
		</g>
		<g id="Group_101-16" transform="translate(-827.64 1106)">
			<rect id="Rectangle_33-250" x="1143.5" y="54" width="2" height="40"/>
		</g>
		<g id="Group_102-16" transform="translate(-821.64 1106)">
			<rect id="Rectangle_33-251" x="1143.5" y="54" width="2" height="40"/>
		</g>
		<g id="Group_103-16" transform="translate(-815.64 1106)">
			<rect id="Rectangle_33-252" x="1143.5" y="54" width="2" height="40"/>
		</g>
		<g id="Group_104-16" transform="translate(-809.64 1106)">
			<rect id="Rectangle_33-253" x="1143.5" y="54" width="2" height="40"/>
		</g>
		<g id="Group_105-16" transform="translate(-803.64 1106)">
			<rect id="Rectangle_33-254" x="1143.5" y="54" width="2" height="40"/>
		</g>
		<g id="Group_106-16" transform="translate(-797.64 1106)">
			<rect id="Rectangle_33-255" x="1143.5" y="54" width="2" height="40"/>
		</g>
	</g>
</g>
</svg>
